<?xml version="1.0"?>
<svg xmlns="http://www.w3.org/2000/svg" xmlns:xlink="http://www.w3.org/1999/xlink" xmlns:svgjs="http://svgjs.com/svgjs" version="1.1" width="512" height="512" x="0" y="0" viewBox="0 0 512.001 512.001" style="enable-background:new 0 0 512 512" xml:space="preserve" class=""><g>
<g xmlns="http://www.w3.org/2000/svg">
	<g>
		<path d="M103.188,99.887c-2.928-2.93-7.677-2.929-10.606-0.001l-18.931,18.929l-8.075-8.075    c-2.929-2.928-7.678-2.929-10.606,0.001c-2.929,2.929-2.929,7.678,0,10.606l13.378,13.378c1.464,1.464,3.384,2.197,5.303,2.197    s3.839-0.732,5.303-2.196l24.234-24.233C106.117,107.564,106.117,102.815,103.188,99.887z" fill="#f57f20" data-original="#000000" class=""/>
	</g>
</g>
<g xmlns="http://www.w3.org/2000/svg">
	<g>
		<path d="M98.128,177.735H60.029c-8.158,0-14.795,6.638-14.795,14.796v38.098c0,8.158,6.637,14.796,14.795,14.796h38.098    c8.159,0,14.796-6.638,14.796-14.796v-38.098C112.923,184.373,106.286,177.735,98.128,177.735z M97.923,230.425H60.234v-37.689    h37.689C97.924,192.736,97.924,230.425,97.923,230.425z" fill="#f57f20" data-original="#000000" class=""/>
	</g>
</g>
<g xmlns="http://www.w3.org/2000/svg">
	<g>
		<path d="M98.128,283.003H60.029c-8.158,0-14.795,6.638-14.795,14.796v38.098c0,8.158,6.637,14.796,14.795,14.796h38.098    c8.159,0,14.796-6.638,14.796-14.796v-38.098C112.923,289.641,106.286,283.003,98.128,283.003z M97.923,335.692H60.234v-37.689    h37.689C97.924,298.003,97.924,335.692,97.923,335.692z" fill="#f57f20" data-original="#000000" class=""/>
	</g>
</g>
<g xmlns="http://www.w3.org/2000/svg">
	<g>
		<path d="M98.128,390.51H60.029c-8.158,0-14.795,6.638-14.795,14.796v38.098c0,8.158,6.637,14.796,14.795,14.796h38.098    c8.159,0,14.796-6.638,14.796-14.796v-38.098C112.923,397.147,106.286,390.51,98.128,390.51z M97.923,443.199H60.234V405.51    h37.689C97.924,405.51,97.924,443.199,97.923,443.199z" fill="#f57f20" data-original="#000000" class=""/>
	</g>
</g>
<g xmlns="http://www.w3.org/2000/svg">
	<g>
		<path d="M499.696,200.618c-4.142,0-7.5,3.357-7.5,7.5v278.756c0,5.584-4.542,10.126-10.126,10.126H213.534    c-5.583,0-10.126-4.542-10.126-10.126V111.749c0-5.584,4.542-10.126,10.126-10.126h268.534c5.583,0,10.126,4.542,10.126,10.126    v65.619c0.001,4.143,3.358,7.5,7.501,7.5c4.142,0,7.5-3.357,7.5-7.5v-65.619c0-13.854-11.271-25.126-25.126-25.126h-40.194v-42.33    c0-24.421-19.866-44.29-44.293-44.293c-0.001,0-0.002,0-0.003,0H55.371C27.49,0,4.805,22.684,4.805,50.565V467.18    c0,24.423,19.87,44.292,44.292,44.292h120.071c4.142,0,7.5-3.357,7.5-7.5s-3.358-7.5-7.5-7.5H49.099    c-16.152,0-29.292-13.141-29.292-29.292V50.565C19.805,30.954,35.76,15,55.371,15h309.023c-6.906,7.814-11.11,18.069-11.11,29.293    v20.7c0,4.143,3.358,7.5,7.5,7.5c4.142,0,7.5-3.357,7.5-7.5v-20.7c0-16.152,13.141-29.293,29.299-29.293    c16.152,0,29.292,13.141,29.292,29.293v42.33h-213.34c-13.854,0-25.126,11.271-25.126,25.126v5.192h-38.966    c-4.142,0-7.5,3.357-7.5,7.5s3.358,7.5,7.5,7.5h38.966v72.139h-38.966c-4.142,0-7.5,3.357-7.5,7.5s3.358,7.5,7.5,7.5h38.966    v90.268h-38.966c-4.142,0-7.5,3.357-7.5,7.5s3.358,7.5,7.5,7.5h38.966v92.507h-38.966c-4.142,0-7.5,3.357-7.5,7.5    s3.358,7.5,7.5,7.5h38.966v55.02c0,13.854,11.271,25.126,25.126,25.126H482.07c13.854,0,25.126-11.271,25.126-25.126V208.118    C507.196,203.975,503.838,200.618,499.696,200.618z" fill="#f57f20" data-original="#000000" class=""/>
	</g>
</g>
<g xmlns="http://www.w3.org/2000/svg">
	<g>
		<path d="M459.057,113.484H233.972c-9.846,0-17.855,8.01-17.855,17.855v56.044c0,9.846,8.01,17.855,17.855,17.855h225.083    c9.846,0,17.855-8.01,17.855-17.855v-56.044h0.001C476.911,121.493,468.901,113.484,459.057,113.484z M459.057,190.238H233.972    c-1.575,0-2.855-1.281-2.855-2.855v-56.044c0-1.574,1.281-2.855,2.855-2.855h225.083c1.575,0,2.855,1.281,2.855,2.855v56.044    h0.001C461.911,188.957,460.63,190.238,459.057,190.238z" fill="#f57f20" data-original="#000000" class=""/>
	</g>
</g>
<g xmlns="http://www.w3.org/2000/svg">
	<g>
		<path d="M255.981,220.209h-24.683c-8.371,0-15.181,6.81-15.181,15.181v24.104c0,8.371,6.81,15.181,15.181,15.181h24.683    c8.371,0,15.181-6.81,15.181-15.181V235.39C271.161,227.019,264.352,220.209,255.981,220.209z M256.161,259.493    c0,0.1-0.081,0.181-0.181,0.181h-24.683c-0.1,0-0.181-0.081-0.181-0.181V235.39c0-0.1,0.081-0.181,0.181-0.181h24.683    c0.1,0,0.181,0.081,0.181,0.181V259.493z" fill="#f57f20" data-original="#000000" class=""/>
	</g>
</g>
<g xmlns="http://www.w3.org/2000/svg">
	<g>
		<path d="M324.563,220.209H299.88c-8.371,0-15.181,6.81-15.181,15.181v24.104c0,8.371,6.81,15.181,15.181,15.181h24.683    c8.371,0,15.181-6.81,15.181-15.181V235.39C339.745,227.019,332.935,220.209,324.563,220.209z M324.745,259.493    c0,0.1-0.081,0.181-0.181,0.181H299.88c-0.1,0-0.181-0.081-0.181-0.181V235.39c0-0.1,0.081-0.181,0.181-0.181h24.683    c0.1,0,0.181,0.081,0.181,0.181V259.493z" fill="#f57f20" data-original="#000000" class=""/>
	</g>
</g>
<g xmlns="http://www.w3.org/2000/svg">
	<g>
		<path d="M393.146,220.209h-24.683c-8.371,0-15.181,6.81-15.181,15.181v24.104c0,8.371,6.81,15.181,15.181,15.181h24.683    c8.371,0,15.181-6.81,15.181-15.181V235.39C408.328,227.019,401.518,220.209,393.146,220.209z M393.328,259.493    c0,0.1-0.081,0.181-0.181,0.181h-24.683c-0.1,0-0.181-0.081-0.181-0.181V235.39c0-0.1,0.081-0.181,0.181-0.181h24.683    c0.1,0,0.181,0.081,0.181,0.181V259.493z" fill="#f57f20" data-original="#000000" class=""/>
	</g>
</g>
<g xmlns="http://www.w3.org/2000/svg">
	<g>
		<path d="M461.731,220.209h-24.683c-8.371,0-15.181,6.81-15.181,15.181v24.104c0,8.371,6.81,15.181,15.181,15.181h24.683    c8.371,0,15.181-6.81,15.181-15.181V235.39C476.911,227.019,470.102,220.209,461.731,220.209z M461.911,259.493    c0,0.1-0.081,0.181-0.181,0.181h-24.683c-0.1,0-0.181-0.081-0.181-0.181V235.39c0-0.1,0.081-0.181,0.181-0.181h24.683    c0.1,0,0.181,0.081,0.181,0.181V259.493z" fill="#f57f20" data-original="#000000" class=""/>
	</g>
</g>
<g xmlns="http://www.w3.org/2000/svg">
	<g>
		<path d="M255.981,289.615h-24.683c-8.371,0-15.181,6.81-15.181,15.181V328.9c0,8.371,6.81,15.181,15.181,15.181h24.683    c8.371,0,15.181-6.81,15.181-15.181v-24.104C271.161,296.425,264.352,289.615,255.981,289.615z M256.161,328.899    c0,0.1-0.081,0.181-0.181,0.181h-24.683c-0.1,0-0.181-0.081-0.181-0.181v-24.104c0-0.1,0.081-0.181,0.181-0.181h24.683    c0.1,0,0.181,0.081,0.181,0.181V328.899z" fill="#f57f20" data-original="#000000" class=""/>
	</g>
</g>
<g xmlns="http://www.w3.org/2000/svg">
	<g>
		<path d="M324.563,289.615H299.88c-8.371,0-15.181,6.81-15.181,15.181V328.9c0,8.371,6.81,15.181,15.181,15.181h24.683    c8.371,0,15.181-6.81,15.181-15.181v-24.104C339.745,296.425,332.935,289.615,324.563,289.615z M324.745,328.899    c0,0.1-0.081,0.181-0.181,0.181H299.88c-0.1,0-0.181-0.081-0.181-0.181v-24.104c0-0.1,0.081-0.181,0.181-0.181h24.683    c0.1,0,0.181,0.081,0.181,0.181V328.899z" fill="#f57f20" data-original="#000000" class=""/>
	</g>
</g>
<g xmlns="http://www.w3.org/2000/svg">
	<g>
		<path d="M393.146,289.615h-24.683c-8.371,0-15.181,6.81-15.181,15.181V328.9c0,8.371,6.81,15.181,15.181,15.181h24.683    c8.371,0,15.181-6.81,15.181-15.181v-24.104C408.328,296.425,401.518,289.615,393.146,289.615z M393.328,328.899    c0,0.1-0.081,0.181-0.181,0.181h-24.683c-0.1,0-0.181-0.081-0.181-0.181v-24.104c0-0.1,0.081-0.181,0.181-0.181h24.683    c0.1,0,0.181,0.081,0.181,0.181V328.899z" fill="#f57f20" data-original="#000000" class=""/>
	</g>
</g>
<g xmlns="http://www.w3.org/2000/svg">
	<g>
		<path d="M461.731,289.615h-24.683c-8.371,0-15.181,6.81-15.181,15.181V328.9c0,8.371,6.81,15.181,15.181,15.181h24.683    c8.371,0,15.181-6.81,15.181-15.181v-24.104C476.911,296.425,470.102,289.615,461.731,289.615z M461.911,328.899    c0,0.1-0.081,0.181-0.181,0.181h-24.683c-0.1,0-0.181-0.081-0.181-0.181v-24.104c0-0.1,0.081-0.181,0.181-0.181h24.683    c0.1,0,0.181,0.081,0.181,0.181V328.899z" fill="#f57f20" data-original="#000000" class=""/>
	</g>
</g>
<g xmlns="http://www.w3.org/2000/svg">
	<g>
		<path d="M255.981,359.021h-24.683c-8.371,0-15.181,6.81-15.181,15.181v24.104c0,8.371,6.81,15.181,15.181,15.181h24.683    c8.371,0,15.181-6.81,15.181-15.181v-24.104C271.161,365.831,264.352,359.021,255.981,359.021z M256.161,398.306    c0,0.1-0.081,0.181-0.181,0.181h-24.683c-0.1,0-0.181-0.081-0.181-0.181v-24.104c0-0.1,0.081-0.181,0.181-0.181h24.683    c0.1,0,0.181,0.081,0.181,0.181V398.306z" fill="#f57f20" data-original="#000000" class=""/>
	</g>
</g>
<g xmlns="http://www.w3.org/2000/svg">
	<g>
		<path d="M324.563,359.021H299.88c-8.371,0-15.181,6.81-15.181,15.181v24.104c0,8.371,6.81,15.181,15.181,15.181h24.683    c8.371,0,15.181-6.81,15.181-15.181v-24.104C339.745,365.831,332.935,359.021,324.563,359.021z M324.745,398.306    c0,0.1-0.081,0.181-0.181,0.181H299.88c-0.1,0-0.181-0.081-0.181-0.181v-24.104c0-0.1,0.081-0.181,0.181-0.181h24.683    c0.1,0,0.181,0.081,0.181,0.181V398.306z" fill="#f57f20" data-original="#000000" class=""/>
	</g>
</g>
<g xmlns="http://www.w3.org/2000/svg">
	<g>
		<path d="M393.146,359.021h-24.683c-8.371,0-15.181,6.81-15.181,15.181v24.104c0,8.371,6.81,15.181,15.181,15.181h24.683    c8.371,0,15.181-6.81,15.181-15.181v-24.104C408.328,365.831,401.518,359.021,393.146,359.021z M393.328,398.306    c0,0.1-0.081,0.181-0.181,0.181h-24.683c-0.1,0-0.181-0.081-0.181-0.181v-24.104c0-0.1,0.081-0.181,0.181-0.181h24.683    c0.1,0,0.181,0.081,0.181,0.181V398.306z" fill="#f57f20" data-original="#000000" class=""/>
	</g>
</g>
<g xmlns="http://www.w3.org/2000/svg">
	<g>
		<path d="M461.731,359.021h-24.683c-8.371,0-15.181,6.81-15.181,15.181v89.33c0,8.371,6.81,15.181,15.181,15.181h24.683    c8.371,0,15.181-6.81,15.181-15.181v-89.33C476.911,365.831,470.102,359.021,461.731,359.021z M461.911,463.532    c0,0.1-0.081,0.181-0.181,0.181h-24.683c-0.1,0-0.181-0.081-0.181-0.181v-89.33c0-0.1,0.081-0.181,0.181-0.181h24.683    c0.1,0,0.181,0.081,0.181,0.181V463.532z" fill="#f57f20" data-original="#000000" class=""/>
	</g>
</g>
<g xmlns="http://www.w3.org/2000/svg">
	<g>
		<path d="M255.982,424.248h-24.683c-8.371,0-15.181,6.81-15.181,15.181v24.104c0,8.371,6.81,15.181,15.181,15.181h24.683    c8.371,0,15.181-6.81,15.181-15.181v-24.104C271.161,431.058,264.352,424.248,255.982,424.248z M256.161,463.532    c0,0.1-0.081,0.181-0.181,0.181h-24.683c-0.1,0-0.181-0.081-0.181-0.181v-24.104c0-0.1,0.081-0.181,0.181-0.181h24.683    c0.1,0,0.181,0.081,0.181,0.181V463.532z" fill="#f57f20" data-original="#000000" class=""/>
	</g>
</g>
<g xmlns="http://www.w3.org/2000/svg">
	<g>
		<path d="M324.565,424.248h-24.683c-8.371,0-15.181,6.81-15.181,15.181v24.104c0,8.371,6.81,15.181,15.181,15.181h24.683    c8.371,0,15.181-6.81,15.181-15.181v-24.104C339.745,431.058,332.935,424.248,324.565,424.248z M324.745,463.532    c0,0.1-0.081,0.181-0.181,0.181H299.88c-0.1,0-0.181-0.081-0.181-0.181v-24.104c0-0.1,0.081-0.181,0.181-0.181h24.683    c0.1,0,0.181,0.081,0.181,0.181V463.532z" fill="#f57f20" data-original="#000000" class=""/>
	</g>
</g>
<g xmlns="http://www.w3.org/2000/svg">
	<g>
		<path d="M393.148,424.248h-24.683c-8.371,0-15.181,6.81-15.181,15.181v24.104c0,8.371,6.81,15.181,15.181,15.181h24.683    c8.371,0,15.181-6.81,15.181-15.181v-24.104C408.328,431.058,401.518,424.248,393.148,424.248z M393.328,463.532    c0,0.1-0.081,0.181-0.181,0.181h-24.683c-0.1,0-0.181-0.081-0.181-0.181v-24.104c0-0.1,0.081-0.181,0.181-0.181h24.683    c0.1,0,0.181,0.081,0.181,0.181V463.532z" fill="#f57f20" data-original="#000000" class=""/>
	</g>
</g>
<g xmlns="http://www.w3.org/2000/svg">
</g>
<g xmlns="http://www.w3.org/2000/svg">
</g>
<g xmlns="http://www.w3.org/2000/svg">
</g>
<g xmlns="http://www.w3.org/2000/svg">
</g>
<g xmlns="http://www.w3.org/2000/svg">
</g>
<g xmlns="http://www.w3.org/2000/svg">
</g>
<g xmlns="http://www.w3.org/2000/svg">
</g>
<g xmlns="http://www.w3.org/2000/svg">
</g>
<g xmlns="http://www.w3.org/2000/svg">
</g>
<g xmlns="http://www.w3.org/2000/svg">
</g>
<g xmlns="http://www.w3.org/2000/svg">
</g>
<g xmlns="http://www.w3.org/2000/svg">
</g>
<g xmlns="http://www.w3.org/2000/svg">
</g>
<g xmlns="http://www.w3.org/2000/svg">
</g>
<g xmlns="http://www.w3.org/2000/svg">
</g>
</g></svg>
