<?xml version="1.0"?>
<svg xmlns="http://www.w3.org/2000/svg" xmlns:xlink="http://www.w3.org/1999/xlink" xmlns:svgjs="http://svgjs.com/svgjs" version="1.1" width="512" height="512" x="0" y="0" viewBox="0 0 512 512" style="enable-background:new 0 0 512 512" xml:space="preserve" class=""><g><path xmlns="http://www.w3.org/2000/svg" d="m320.373 403.816c-4.143 0-7.5 3.358-7.5 7.5 0 31.974-26.013 57.986-57.986 57.986-4.143 0-7.5 3.358-7.5 7.5s3.357 7.5 7.5 7.5c40.245 0 72.986-32.742 72.986-72.986 0-4.142-3.357-7.5-7.5-7.5z" fill="#f57f20" data-original="#000000" class=""/><path xmlns="http://www.w3.org/2000/svg" d="m254.887 353.33c4.143 0 7.5-3.358 7.5-7.5s-3.357-7.5-7.5-7.5c-40.245 0-72.986 32.742-72.986 72.986 0 4.142 3.357 7.5 7.5 7.5s7.5-3.358 7.5-7.5c-.001-31.974 26.012-57.986 57.986-57.986z" fill="#f57f20" data-original="#000000" class=""/><path xmlns="http://www.w3.org/2000/svg" d="m301.318 411.316c0-25.603-20.829-46.432-46.432-46.432s-46.432 20.83-46.432 46.432 20.829 46.432 46.432 46.432 46.432-20.829 46.432-46.432zm-77.863 0c0-17.332 14.101-31.432 31.432-31.432s31.432 14.101 31.432 31.432-14.101 31.432-31.432 31.432-31.432-14.1-31.432-31.432z" fill="#f57f20" data-original="#000000" class=""/><path xmlns="http://www.w3.org/2000/svg" d="m275.556 411.316c0-11.397-9.272-20.669-20.669-20.669s-20.669 9.272-20.669 20.669c0 11.396 9.272 20.668 20.669 20.668s20.669-9.272 20.669-20.668zm-26.338 0c0-3.126 2.543-5.669 5.669-5.669s5.669 2.543 5.669 5.669c0 3.125-2.543 5.668-5.669 5.668s-5.669-2.543-5.669-5.668z" fill="#f57f20" data-original="#000000" class=""/><path xmlns="http://www.w3.org/2000/svg" d="m268.524 207.876h-52.569c-4.143 0-7.5 3.358-7.5 7.5v29.94c0 4.142 3.357 7.5 7.5 7.5h52.569c4.143 0 7.5-3.358 7.5-7.5v-29.94c0-4.143-3.357-7.5-7.5-7.5zm-7.5 29.94h-37.569v-14.94h37.569z" fill="#f57f20" data-original="#000000" class=""/><path xmlns="http://www.w3.org/2000/svg" d="m387.472 122.791v23.283c0 4.142 3.357 7.5 7.5 7.5s7.5-3.358 7.5-7.5v-23.283c0-4.142-3.357-7.5-7.5-7.5s-7.5 3.358-7.5 7.5z" fill="#f57f20" data-original="#000000" class=""/><path xmlns="http://www.w3.org/2000/svg" d="m512 183.775v-75.984c0-10.529-8.566-19.095-19.096-19.095h-16.357c-4.143 0-7.5 3.358-7.5 7.5s3.357 7.5 7.5 7.5h16.357c2.259 0 4.096 1.837 4.096 4.095v75.984c0 2.258-1.837 4.095-4.096 4.095-83.824-.002-80.186.005-80.401-.005-.1-.033-2.171-.002-3.349-2.042l-7.406-12.827c-.994-1.723-2.633-2.979-4.554-3.495l-16.688-4.472c-1.787-.479-3.035-2.105-3.035-3.956v-53.283c0-2.258 1.837-4.095 4.095-4.095h59.98c4.143 0 7.5-3.358 7.5-7.5s-3.357-7.5-7.5-7.5h-59.98c-10.529 0-19.095 8.566-19.095 19.095v53.283c0 8.627 5.819 16.212 14.152 18.445l13.688 3.667 1.876 3.249-37.782-2.66-15.653-69.268 72.463-62.932c4.453-3.867 10.648-4.892 16.167-2.674 8.328 3.344 17.833 1.382 24.216-5 5.367-5.368 7.663-13.017 6.141-20.459-1.518-7.416-6.61-13.524-13.623-16.339-21.23-8.521-45.143-4.499-62.407 10.497l-173.587 150.755-43.265-102.404c-14.313-33.877-47.324-55.767-84.102-55.767h-73.255c-4.143 0-7.5 3.358-7.5 7.5v385.607c0 4.142 3.357 7.5 7.5 7.5h149.402c-.001.175-.002.351-.002.526 0 54.03 43.956 97.986 97.986 97.986s97.986-43.957 97.986-97.986c0-.176-.001-.351-.002-.526h35.877v6.64c0 4.142 3.357 7.5 7.5 7.5h108.253c4.143 0 7.5-3.358 7.5-7.5v-59.041c0-4.142-3.357-7.5-7.5-7.5h-2.675v-100.189c0-19.278-9.159-36.662-23.449-47.829h14.528c10.53 0 19.096-8.566 19.096-19.096zm-173.221-1.099-72.632-5.113 59.75-51.891zm52.766-153.752c12.997-11.29 31-14.317 46.983-7.901 2.357.946 4.003 2.924 4.515 5.426.518 2.529-.229 5.024-2.051 6.845-2.128 2.126-5.276 2.789-8.02 1.687-10.768-4.323-22.872-2.304-31.593 5.269l-75.74 65.778c-.064.054-.127.109-.19.165l-80.465 69.881-21.16-1.49zm-272.37 144.37c-7.852 0-14.239-6.388-14.239-14.239s6.388-14.239 14.239-14.239h16.76c7.851 0 14.238 6.388 14.238 14.239v14.239zm18.405-43.432-14.82-35.079c-8.88-21.019-29.361-34.6-52.18-34.6h-8.351c-4.143 0-7.5 3.358-7.5 7.5s3.357 7.5 7.5 7.5h8.351c16.775 0 31.833 9.985 38.362 25.438l12.335 29.195c-1.363.051-4.256-.221-8.344.67-12.898 2.815-22.641 14.168-22.989 27.815-.138 5.446 1.231 10.595 3.698 14.992h-78.642v-98.11h12.229c4.143 0 7.5-3.358 7.5-7.5s-3.357-7.5-7.5-7.5h-12.229v-10h65.756c20.664 0 39.213 12.299 47.255 31.334l21.914 51.868c-3.705-2.026-7.893-3.274-12.345-3.523zm117.307 364.44c-45.759 0-82.986-37.228-82.986-82.986 0-45.584 37.059-82.986 82.986-82.986 45.883 0 82.986 37.348 82.986 82.986 0 45.759-37.227 82.986-82.986 82.986zm242.113-84.373h-93.252v-44.041h93.252zm-10.295-162.538c-10.45 0-96.045 0-107.324 0-4.143 0-7.5 3.358-7.5 7.5v23.832c0 20.476 16.658 37.133 37.134 37.133h77.811v35.032h-90.577c-4.143 0-7.5 3.358-7.5 7.5v37.401h-37.104c-7.462-46.678-48.01-82.46-96.758-82.46-22.228 0-42.75 7.44-59.209 19.96v-13.59c0-4.142-3.357-7.5-7.5-7.5s-7.5 3.358-7.5 7.5v27.697c-11.605 13.454-19.622 30.086-22.549 48.394h-143.129v-207.496h104.175 38.498c4.143 0 7.5-3.358 7.5-7.5v-11.317l15.505 36.698v78.525c0 4.142 3.357 7.5 7.5 7.5s7.5-3.358 7.5-7.5v-80.044c0-1.003-.201-1.995-.592-2.919l-53.257-126.057c-10.394-24.601-34.366-40.497-61.073-40.497h-65.756v-10h65.756c30.735 0 58.323 18.293 70.284 46.604l47.232 111.792c1.043 2.607 3.507 4.487 6.438 4.695 31.545 2.221 204.915 14.425 239.654 16.87 22.701 1.599 40.712 19.863 42.341 42.247zm-49.824 15h49.734v38.465h-49.734zm-27.866 38.466c-12.205 0-22.134-9.929-22.134-22.133v-16.332h35v38.465z" fill="#f57f20" data-original="#000000" class=""/><path xmlns="http://www.w3.org/2000/svg" d="m481.851 127.679c2.929-2.929 2.929-7.678-.001-10.607-2.928-2.929-7.677-2.928-10.606 0l-4.941 4.941h-33.133l-4.942-4.942c-2.928-2.929-7.677-2.928-10.606 0-2.929 2.929-2.929 7.678.001 10.607l4.941 4.941v26.325l-4.941 4.941c-2.93 2.929-2.93 7.678-.001 10.607 1.465 1.464 3.384 2.197 5.304 2.197 1.919 0 3.839-.732 5.303-2.196l4.942-4.942h33.133l4.941 4.941c1.465 1.464 3.384 2.197 5.304 2.197 1.919 0 3.839-.732 5.303-2.196 2.93-2.929 2.93-7.678.001-10.607l-4.941-4.942v-26.324zm-44.288 9.335h24.347v17.538h-24.347z" fill="#f57f20" data-original="#000000" class=""/></g></svg>
