<?xml version="1.0"?>
<svg xmlns="http://www.w3.org/2000/svg" xmlns:xlink="http://www.w3.org/1999/xlink" xmlns:svgjs="http://svgjs.com/svgjs" version="1.1" width="512" height="512" x="0" y="0" viewBox="0 0 512 512" style="enable-background:new 0 0 512 512" xml:space="preserve" class=""><g>
<g xmlns="http://www.w3.org/2000/svg">
	<g>
		<path d="M421.24,227.46c-1.859-1.86-4.439-2.93-7.069-2.93s-5.21,1.07-7.07,2.93c-1.86,1.86-2.93,4.44-2.93,7.07    s1.069,5.21,2.93,7.07c1.86,1.86,4.44,2.93,7.07,2.93s5.21-1.07,7.069-2.93c1.86-1.86,2.931-4.44,2.931-7.07    S423.101,229.32,421.24,227.46z" fill="#f57f20" data-original="#000000"/>
	</g>
</g>
<g xmlns="http://www.w3.org/2000/svg">
	<g>
		<path d="M277.171,438h-193c-5.522,0-10,4.477-10,10s4.478,10,10,10h193c5.522,0,10-4.477,10-10S282.693,438,277.171,438z" fill="#f57f20" data-original="#000000"/>
	</g>
</g>
<g xmlns="http://www.w3.org/2000/svg">
	<g>
		<path d="M277.171,382h-152c-5.522,0-10,4.477-10,10s4.478,10,10,10h152c5.522,0,10-4.477,10-10S282.694,382,277.171,382z" fill="#f57f20" data-original="#000000"/>
	</g>
</g>
<g xmlns="http://www.w3.org/2000/svg">
	<g>
		<path d="M277.171,326H83.23c-5.522,0-10,4.477-10,10s4.478,10,10,10h193.941c5.522,0,10-4.477,10-10S282.694,326,277.171,326z" fill="#f57f20" data-original="#000000"/>
	</g>
</g>
<g xmlns="http://www.w3.org/2000/svg">
	<g>
		<path d="M90.301,272.93c-1.86-1.86-4.44-2.93-7.07-2.93s-5.21,1.07-7.069,2.93c-1.86,1.86-2.931,4.44-2.931,7.07    s1.07,5.21,2.931,7.07c1.859,1.86,4.43,2.93,7.069,2.93c2.63,0,5.21-1.07,7.07-2.93c1.86-1.86,2.93-4.44,2.93-7.07    S92.162,274.79,90.301,272.93z" fill="#f57f20" data-original="#000000"/>
	</g>
</g>
<g xmlns="http://www.w3.org/2000/svg">
	<g>
		<path d="M90.301,384.93c-1.86-1.86-4.44-2.93-7.07-2.93s-5.21,1.07-7.069,2.93c-1.86,1.86-2.931,4.44-2.931,7.07    s1.07,5.21,2.931,7.07c1.859,1.86,4.439,2.93,7.069,2.93s5.21-1.07,7.07-2.93c1.86-1.86,2.93-4.44,2.93-7.07    S92.162,386.79,90.301,384.93z" fill="#f57f20" data-original="#000000"/>
	</g>
</g>
<g xmlns="http://www.w3.org/2000/svg">
	<g>
		<path d="M277.171,270h-152c-5.522,0-10,4.477-10,10s4.478,10,10,10h152c5.522,0,10-4.477,10-10S282.694,270,277.171,270z" fill="#f57f20" data-original="#000000"/>
	</g>
</g>
<g xmlns="http://www.w3.org/2000/svg">
	<g>
		<path d="M136.683,119.812H83.23c-5.522,0-10,4.477-10,10c0,5.523,4.478,10,10,10h16.727v74.795c0,5.523,4.478,10,10,10    c5.522,0,10-4.477,10-10v-74.795h16.727c5.522,0,10-4.477,10-10C146.684,124.289,142.206,119.812,136.683,119.812z" fill="#f57f20" data-original="#000000"/>
	</g>
</g>
<g xmlns="http://www.w3.org/2000/svg">
	<g>
		<path d="M237.013,210.704l-35.743-84.158c-1.568-3.693-5.192-6.091-9.204-6.091c-4.012,0-7.636,2.398-9.204,6.091l-35.743,84.158    c-2.16,5.084,0.212,10.955,5.295,13.113c5.082,2.161,10.954-0.212,13.113-5.295l6.392-15.05h40.294l6.392,15.05    c1.617,3.808,5.316,6.094,9.209,6.093c1.304,0,2.629-0.256,3.904-0.798C236.801,221.658,239.172,215.787,237.013,210.704z     M180.414,183.472l11.652-27.436l11.653,27.436H180.414z" fill="#f57f20" data-original="#000000"/>
	</g>
</g>
<g xmlns="http://www.w3.org/2000/svg">
	<g>
		<path d="M295.425,172.228l23.511-37.072c2.957-4.663,1.574-10.842-3.09-13.8c-4.664-2.959-10.843-1.574-13.801,3.089    l-18.462,29.111l-18.462-29.111c-2.958-4.663-9.135-6.047-13.801-3.089c-4.664,2.958-6.047,9.137-3.09,13.801l23.511,37.072    L248.23,209.3c-2.957,4.664-1.574,10.843,3.09,13.801c1.661,1.054,3.515,1.557,5.346,1.557c3.311,0,6.551-1.643,8.455-4.646    l18.462-29.111l18.462,29.111c1.905,3.003,5.144,4.646,8.455,4.646c1.831,0,3.685-0.503,5.346-1.557    c4.664-2.958,6.047-9.137,3.09-13.801L295.425,172.228z" fill="#f57f20" data-original="#000000"/>
	</g>
</g>
<g xmlns="http://www.w3.org/2000/svg">
	<g>
		<path d="M511.829,362c0-11.071-4.761-21.048-12.341-28c7.58-6.952,12.341-16.929,12.341-28c0-20.953-17.047-38-38-38h-88    c-20.953,0-38,17.047-38,38c0,11.071,4.761,21.048,12.341,28c-7.58,6.952-12.341,16.929-12.341,28s4.761,21.048,12.341,28    c-7.58,6.952-12.341,16.929-12.341,28s4.761,21.048,12.341,28c-7.58,6.952-12.341,16.929-12.341,28c0,6.509,1.647,12.639,4.543,18    h-322.2c-5.514,0-10-4.486-10-10V30c0-5.514,4.486-10,10-10h283v60.867c0,16.685,13.574,30.26,30.26,30.26h60.74v82.345    c0,5.523,4.478,10,10,10c5.522,0,10-4.477,10-10v-92.345c-0.008,0.002-0.016,0.003-0.024,0.005c0-2.603-0.991-5.162-2.905-7.076    l-91-91c-1.914-1.913-4.473-2.904-7.076-2.904c0.002-0.051,0.003-0.1,0.004-0.152h-293c-16.542,0-30,13.458-30,30v452    c0,16.542,13.458,30,30,30h443.657c20.953,0,38-17.047,38-38c0-11.071-4.761-21.048-12.341-28c7.58-6.952,12.341-16.929,12.341-28    s-4.761-21.048-12.341-28C507.067,383.048,511.829,373.071,511.829,362z M333.171,34.269l56.857,56.858h-46.597    c-5.657,0-10.26-4.603-10.26-10.26V34.269z M473.829,492h-79.657h-8.343c-9.925,0-18-8.075-18-18s8.075-18,18-18h88    c9.924,0,18,8.075,18,18S483.754,492,473.829,492z M473.829,436h-88c-9.925,0-18-8.075-18-18s8.075-18,18-18h88    c9.924,0,18,8.075,18,18S483.754,436,473.829,436z M473.829,380h-88c-9.925,0-18-8.075-18-18s8.075-18,18-18h88    c9.925,0,18,8.075,18,18S483.754,380,473.829,380z M473.829,324h-88c-9.925,0-18-8.075-18-18s8.075-18,18-18h88    c9.925,0,18,8.075,18,18S483.754,324,473.829,324z" fill="#f57f20" data-original="#000000"/>
	</g>
</g>
<g xmlns="http://www.w3.org/2000/svg">
</g>
<g xmlns="http://www.w3.org/2000/svg">
</g>
<g xmlns="http://www.w3.org/2000/svg">
</g>
<g xmlns="http://www.w3.org/2000/svg">
</g>
<g xmlns="http://www.w3.org/2000/svg">
</g>
<g xmlns="http://www.w3.org/2000/svg">
</g>
<g xmlns="http://www.w3.org/2000/svg">
</g>
<g xmlns="http://www.w3.org/2000/svg">
</g>
<g xmlns="http://www.w3.org/2000/svg">
</g>
<g xmlns="http://www.w3.org/2000/svg">
</g>
<g xmlns="http://www.w3.org/2000/svg">
</g>
<g xmlns="http://www.w3.org/2000/svg">
</g>
<g xmlns="http://www.w3.org/2000/svg">
</g>
<g xmlns="http://www.w3.org/2000/svg">
</g>
<g xmlns="http://www.w3.org/2000/svg">
</g>
</g></svg>
