<?xml version="1.0"?>
<svg xmlns="http://www.w3.org/2000/svg" xmlns:xlink="http://www.w3.org/1999/xlink" xmlns:svgjs="http://svgjs.com/svgjs" version="1.1" width="512" height="512" x="0" y="0" viewBox="0 0 32 32" style="enable-background:new 0 0 512 512" xml:space="preserve"><g><g xmlns="http://www.w3.org/2000/svg" id="Layer_26" fill="rgb(0,0,0)"><path d="m30.272 28.886c-.318-.21-.508-.559-.508-.934v-22.702c0-1.971-1.603-3.573-3.573-3.573h-21.244c-1.97 0-3.572 1.603-3.572 3.573v2.948c0 .345.28.625.625.625h5.271v17.927c0 1.971 1.603 3.573 3.573 3.573h18.994c.351 0 .653-.226.754-.561.099-.332-.029-.685-.32-.876zm-27.647-21.313v-2.323c0-1.281 1.042-2.323 2.322-2.323.623 0 1.207.241 1.645.68.437.436.679 1.02.679 1.643v2.323zm8.219 21.5c-1.281 0-2.323-1.042-2.323-2.323v-18.552-2.948c0-.825-.316-1.694-.854-2.323h18.525c1.281 0 2.323 1.042 2.323 2.323v22.702c0 .398.1.781.283 1.121z" fill="#f57f20" data-original="#000000"/><path d="m24.14 10.063h-7.64c-.345 0-.625.28-.625.625s.28.625.625.625h7.64c.345 0 .625-.28.625-.625s-.281-.625-.625-.625z" fill="#f57f20" data-original="#000000"/><path d="m14.031 10.063h-1.136c-.345 0-.625.28-.625.625s.28.625.625.625h1.136c.345 0 .625-.28.625-.625s-.28-.625-.625-.625z" fill="#f57f20" data-original="#000000"/><path d="m24.14 13.604h-7.64c-.345 0-.625.28-.625.625s.28.625.625.625h7.64c.345 0 .625-.28.625-.625s-.281-.625-.625-.625z" fill="#f57f20" data-original="#000000"/><path d="m14.031 13.604h-1.136c-.345 0-.625.28-.625.625s.28.625.625.625h1.136c.345 0 .625-.28.625-.625s-.28-.625-.625-.625z" fill="#f57f20" data-original="#000000"/><path d="m24.14 17.146h-7.64c-.345 0-.625.28-.625.625s.28.625.625.625h7.64c.345 0 .625-.28.625-.625s-.281-.625-.625-.625z" fill="#f57f20" data-original="#000000"/><path d="m14.031 17.146h-1.136c-.345 0-.625.28-.625.625s.28.625.625.625h1.136c.345 0 .625-.28.625-.625s-.28-.625-.625-.625z" fill="#f57f20" data-original="#000000"/><path d="m24.14 20.688h-7.64c-.345 0-.625.28-.625.625s.28.625.625.625h7.64c.345 0 .625-.28.625-.625s-.281-.625-.625-.625z" fill="#f57f20" data-original="#000000"/><path d="m14.031 20.688h-1.136c-.345 0-.625.28-.625.625s.28.625.625.625h1.136c.345 0 .625-.28.625-.625s-.28-.625-.625-.625z" fill="#f57f20" data-original="#000000"/></g></g></svg>
